<?xml version="1.0" encoding="utf-8"?>
<!-- Generator: Adobe Illustrator 25.2.3, SVG Export Plug-In . SVG Version: 6.00 Build 0)  -->
<svg version="1.1" id="Layer_1" xmlns="http://www.w3.org/2000/svg" xmlns:xlink="http://www.w3.org/1999/xlink" x="0px" y="0px"
	 viewBox="0 0 227.2 458.1" style="enable-background:new 0 0 227.2 458.1;" xml:space="preserve">
<style type="text/css">
	.st0{fill:#333333;}
</style>
<path class="st0" d="M206.3,6c-7.4-5.2-22.7-9.2-30.7-2.6c-7.5,6.3-14.4,12.8-16.4,23.2c-2.9,10.8-2.9,22.2,0,33
	c5.2,15.1,15.1,28.3,28.2,37.6c-2.3,3.5-4.6,6.9-6.8,10.4c-4.6,7.1-4.4,7.9,2.7,13.3c-1.6,3.8-3.5,7.5-4.9,11.4
	c-5.4,14.8-1.7,25.5,11.5,35.6l0,0c1.7,1.8,2.6,4.2,2.5,6.7c-0.2,3.3-0.9,6.5-2,9.6c-0.4,1.1-1.1,2.1-2,2.9
	c-3.6,3.9-7.3,7.8-10.9,11.7c-3.4,4.1-7.1,7.9-11,11.5c-5.4,4.6-11.4,8.5-17.2,12.8c-7.7,5.7-15.5,11.4-23.4,17.3l0,0
	c-12.6-11-23.6-23.7-32.5-37.8c3.7-1.4,7-2.5,10.1-3.8c6.1-1.7,11.8-4.2,17.2-7.6c15.4-12.7,20.4-30.3,17-50.8
	c-1.1-8.2-5.7-15.5-12.5-20c-8-5-16.5-8.9-24.8-13.4c-1.6-0.9-3.9-2.8-3.8-4c0.6-7.4,0.6-15.2,8.3-19.1c-3.1-4.7-6-4.7-8.6-1.1l0,0
	c-1.4,1.8-2.5,4-3,6.2c-0.9,5.3-1.2,10.8-1.7,16.3c-6.8,1.1-9.4-0.4-8.9-7.2c0.8-5.6,2.2-11.2,4.2-16.6c-4.1-0.9-5.2-0.6-7.9,3.1
	c-5.1,7.1-3.3,14.4,1.3,21.8c-3.8,1.5-8-0.1-9.9-3.7c-5-7-6.2-16-3.2-24c0.4-1.3-0.7-3.1-1.2-4.7l0,0c-1.6,0.3-3.1,0.8-4.5,1.5
	c-0.9,0.9-1.4,2.2-1.4,3.4c-1.1,10.6-1.5,21.2,8.3,29.5c-5.7,3.5-10.9,7.6-15.7,12.3c-5.6,7.3-10.4,15.1-14.4,23.3
	c-4.3,8.3-4.4,18.1-0.2,26.4c4.1,8.6,10.5,15.9,18.3,21.3c5,3.5,10.1,6.8,14.7,9.9c-2.4,2.3-4.6,4.9-6.4,7.7
	c-4.5,8.8-8.6,17.8-12.7,26.8c-8.7,18.8-17.2,37.7-25.9,56.5c-0.8,1.7-2.1,3.2-3.8,4c-10.8,4.3-18.8,13.6-21.4,25
	c-2,4.8-0.2,10.3,4.2,13.1c5.2,3.1,8.6-1,11.9-4c8.1-7.4,11.4-17.7,14.6-27.9c1.4-4.6,1.9-9.6,3.7-13.9c4-9.7,8.7-19,12.9-28.6
	c6.4-14.4,12.7-28.8,19.5-44.3c0.6,1.9,0.8,2.3,0.8,2.6C62.2,248,56,277.1,50,306.3c-3.7,14-2.7,28.9,3,42.3
	c2.9,7.5,8.6,13.6,16,16.9c3.4,1,5.6,4.2,5.3,7.7c0.3,15.1,0.9,30.2,1.3,45.4c0.1,5,0.1,10,0.1,15.4c-1.8-0.4-3.2-0.8-4.6-1.2l0,0
	c-13.7-3.7-28.3-2.3-41.1,3.9c-1.9,0.6-3.5,1.9-4.3,3.7c-0.8,1.8-0.9,3.8-0.1,5.7c1.5,3.6,3.5,8.6,6.4,9.8l0,0
	c5,2.1,10.5,2.8,15.9,1.9c10-1.9,19.9-4.5,29.5-7.6c2.2-1,3.6-3.1,3.9-5.5c0.5-9.2,0.6-18.4,0.5-27.7c-0.3-14.7-1-29.5-1.3-44.2
	c0-1.4,1.3-3.9,2.3-4c6.4-0.7,12.9-0.8,20.1-1.1c1.1,12.1,2.6,24.1,3,36c0.3,10.7,0.1,21.4-0.8,32.1c-0.6,8.7,2,14.5,9.1,15.7
	c12.8,2.2,25.5,2.9,37.1-2.9c6.8-3.4,7.5-10.6,1.3-16.1l0,0c-5-5.1-12.3-7.5-19.4-6.4c-6.9,1.3-13.7,2.8-20.7,4.2
	c0-7.5,0.2-15.1-0.1-22.7c-0.6-13.1-1.6-26.1-2.1-39.2c0.1-2,1.1-3.8,2.7-5c7.4-4.5,12.1-12.4,12.8-21c0.4-12.7-0.4-25.4-2.4-38
	c-2.8-14.5-6.5-28.8-11.1-42.8c-4.2-13.9-9.5-27.5-14.3-41.3l1.3-0.6c6.4,7,12.8,14.1,19.2,21.1c1.6,2.3,4.1,3.7,6.9,4
	c2.8,0.3,5.5-0.5,7.6-2.4c7.9-6.4,15.6-13,23.7-19.3c8.3-6.5,15.7-14.9,28.7-12.4c0.8,0.2,5.6,0.2,6.6,1.2c2.2,2.1,3.9,4.6,6,6.8
	c4.9,5.2,6.4,9.6,1.5,14.4l0,0c-4.6,4.5-8.5,9.5-11.9,15c-5.3,8.9-2.9,16.9,6.3,23.4c6.2,4.3,9.7,9.5,7.6,16.9l0,0
	c-0.5,1.6-0.7,3.2-0.6,4.9c0.3,1.7,0.8,3.4,1.4,5.1c1.6-1.3,4.1-2.3,4.7-4c0.8-3,1.1-6.2,1-9.3c0.3-3.1-0.3-6.3-1.8-9.1
	c-1.4-2.8-3.6-5.2-6.3-6.8c-8.3-5.3-10.5-11.8-5.7-19.7c3.1-4.8,6.7-9.2,10.9-13.1c5.4-5.2,5.6-9.9,0.2-17.8
	c-1.2-1.5-2.6-2.9-4.2-4.1c-4.6-4.2-4.1-6.5,0.2-10l0,0c4.7-4,9-8.4,12.7-13.2c1.1-2,1.1-4.5,0-6.5c-2.2-1.9-5-3.1-7.9-3.4
	c-3.3,0.2-6.6,0.8-9.8,1.8c0.9-2.9,1.8-5,2.3-7.3l0,0c1.8-4,0.5-8.6-3-11.2c-16.5-11.2-15-19.7-10.4-33.2c1.8-4.4,4.6-8.3,8.2-11.4
	c2.2-2.1,8-1.6,8.8-3.7c1-2.8-1.4-7-2.4-10.6c0-0.2-0.1-0.4-0.1-0.6c-2.8-5.2-1.8-8.5,3.8-10.5c9-3.1,16-10.4,18.6-19.6
	c2.5-7.4,4-15.1,4.6-22.9C228.1,34.2,222.7,17.6,206.3,6L206.3,6z M8.2,330.6c-3-9.8,3.9-21.7,15.3-27.1
	C22.1,314.1,16.6,323.9,8.2,330.6z M37.3,451.9c-2.1-0.5-3.9-2-4.8-4c-0.5-2.3,0-4.6,1.4-6.5c5.3-5.8,29.5-7.4,36.8-2.7
	c1.8,1.4,3.6,2.9,5.3,4.4C64.3,450,50.8,453.1,37.3,451.9L37.3,451.9z M54.9,184.1c-4.3-4.6-8.1-9.7-11.4-15
	c-0.4-0.6-0.8-1.2-1.1-1.9c-0.4-0.4-0.6-0.9-0.9-1.3c-5.2-11.4,2.3-23.8,8.8-32.6c0.3-0.4,0.6-0.8,0.9-1.2l0,0l0,0
	c3.9-5.9,9-10.9,15-14.5c1.8-1.1,3.7-2.1,5.6-2.9c19.6-8,38.7-2,53,12.7c6.4,6.7,9.3,16,7.8,25.2c-0.8,8.6-3.4,17-7.7,24.6
	c-7.1,11.7-19.4,14.5-31.2,18.5c-3.4,1.2-7,1.8-9.2,2.4C73.2,197.6,62.5,192.6,54.9,184.1L54.9,184.1z M114.8,438.2
	c6.8-2.9,13.8-5.1,21-6.6c1.5-0.2,3-0.2,4.5,0.1c4.2,1.6,9.5,2.6,10.2,8.2c0.7,5-4.5,4.3-7.3,5.6c-8.5,4-17.9,0.9-26.9,0.8
	c-1.2,0-3.5-2-3.5-3C112.7,441.5,113.5,438.8,114.8,438.2L114.8,438.2z M110,270.5c6.1,20.8,9.5,42.4,10.2,64.1
	c0,3.5-0.3,6.9-1.1,10.3c-3.2,14.4-15.1,17-27.6,18.2l0,0c-6,0.9-12,0.4-17.8-1.4c-5.1-2.2-9.4-5.9-12.2-10.7
	c-6.2-10-8.6-21.9-6.8-33.5c3.7-20.1,7.5-40.1,11.5-60c3.2-15.6,6.6-31.2,10.2-46.7c1.9-8.1,2.2-8,10.4-7.5c2.9,8.8,5.6,17,8.5,25.2
	C100.2,242.6,105.9,256.4,110,270.5L110,270.5z M208.3,187.8c-2.1,8.7-16.7,17.9-25.2,16.1C185.1,194.5,197.2,186.6,208.3,187.8z
	 M183.5,114.7c3-4.8,5.3-8.4,7.9-12.6c2,4.2,3.5,7.4,5.2,11C192.4,113.7,188.7,114.1,183.5,114.7L183.5,114.7z M219.3,62.7
	L219.3,62.7c-0.7,6.7-3.3,13-7.5,18.2c-4.2,5.2-9.9,9-16.3,11c-2.7,0.6-5.6,0.1-8-1.3c-10.4-6.3-23.1-27.7-23.9-40.7
	c0.2-9.3-1-20.3,4.9-29.2l0,0c3.4-5.4,7.9-10.1,13.2-13.8c6.4-3.9,13.9,0,20.2,3.5c9.7,5.6,16.1,15.4,17.3,26.4
	C220.6,45.4,220.6,54.1,219.3,62.7L219.3,62.7z"/>
</svg>
