<?xml version="1.0" encoding="utf-8"?>
<!-- Generator: Adobe Illustrator 25.2.3, SVG Export Plug-In . SVG Version: 6.00 Build 0)  -->
<svg version="1.1" id="Layer_1" xmlns="http://www.w3.org/2000/svg" xmlns:xlink="http://www.w3.org/1999/xlink" x="0px" y="0px"
	 viewBox="0 0 217.7 465.8" style="enable-background:new 0 0 217.7 465.8;" xml:space="preserve">
<style type="text/css">
	.st0{fill:#333333;}
</style>
<g>
	<path class="st0" d="M143.1,70.9L143.1,70.9l-5.3-5.8c-5.9,4.1-13.3,5.5-20.3,3.8c-5.3-1-10.4-2.8-15-5.4v0
		c-2.4-1.4-4.6-2.5-6.5,0.3c7.2,12.1,22.1,13.4,37,11.2C136.5,74.1,139.9,72.7,143.1,70.9z"/>
	<polygon class="st0" points="137.8,65.1 137.8,65.1 137.8,65.1 	"/>
	<path class="st0" d="M108.1,51c4.6,0.9,5.9-0.9,5.8-4.3c-0.1-5.2,0.1-10.5-0.2-15.7c-0.6-1.6-1.5-3.1-2.7-4.3
		c-1.4,0.9-2.5,2.1-3.4,3.5C106.2,37.1,106.4,44.2,108.1,51L108.1,51z"/>
	<path class="st0" d="M131.7,52.5c0.2-7.8,0.4-14.6,0.7-22.2l0,0c-2.8-2.1-5.1-2.5-5.8,1.6c-1,6-0.5,12.2,1.6,18
		C129.1,51,130.3,51.9,131.7,52.5z"/>
	<path class="st0" d="M204.7,160.2L204.7,160.2c-4.3-4.2-8.2-8.7-11.5-13.6c-6.6-8.3-15-15.1-24.5-19.7c-11.3-6-19.8-4.2-26.6,1
		c-0.8,0.6-3.1,3.8-5.4,6.6l-0.6-3.4c-2.7-11.6-4.1-17.5-6.8-29.1c-0.3-1.7-0.4-3.3-0.4-5v0c8.3-3.6,16.2-6.6,23.7-10.3
		c11.6-6.3,20.2-16.9,24.1-29.5c1.7-4.5,2.1-9.5,1.2-14.2c-0.9-4.8-3-9.2-6.3-12.8c-12.6-17.2-33-27-54.3-26
		c-12.7,0.5-24.6,6.1-33.1,15.6c-8.4,9.5-12.6,22-11.6,34.7c0.4,2.8,1.3,5.4,2.8,7.8c5.7,11.2,15.1,20,26.5,25.1
		c2.6,1.3,5.1,2.9,7.5,4.6c-2.8,14.4-5.7,28.9-8.5,43.4c-4.3-1.7-7-2.9-9.9-3.8c-10.6-2.9-22-2-32,2.5
		c-12.8,4.6-24.3,12.1-33.7,21.9c-4.9,5.3-8.5,11.5-10.8,18.4C10,188.2,5.4,202.1,2,216.1h0c-2.6,7.5-2.7,15.6-0.3,23.1
		c0.6,3.4,3.6,5.8,7,5.6c4-1,7-4.2,7.9-8.2c0.5-2.5,0.6-5,0.4-7.6c-0.7-8-2-15.9-2.5-23.9c-1.7-18.2,5.3-36.1,19-48.2
		c6.6-5.5,13.9-10.3,21.6-14.2c10.2-5.1,21.9-6.5,33-4c3.9,0.6,7.6,1.7,11.7,2.8c-0.5,2.5-1,5-1.5,7.5l-1.4,6.5l0,0
		c-0.5,3.9-0.7,6.5-1.1,9.2c-0.6,4-1.2,8.1-1.9,12.1c-11.6,0.9-20.3,2.6-28.4,4.2c-2.7,0.5-5.3,1-7.9,1.5c-6,1.1-11.8,2.4-16,7.4
		c-6.4,7.5-9.5,22.2-8,38.4c1.5,15.9,7,29.2,14.9,35.7c0.2,0.4,0.6,0.7,1,0.9c0.2,0.4,0.6,0.7,1.1,0.8c8.3,1.6,16.8,2.5,25.1,3.3
		c2.1,0.2,4.3,0.4,6.4,0.7c0,0,0.1,0,0.1,0c-0.3,5.3-0.4,10.7-0.5,16.1c-0.1,12.5,0.7,25.1,0.9,37.7c0.1,3.9-0.6,7.7-0.7,11.6
		c-0.4,14.5-0.7,29-1,43.5c-0.2,9.1-0.3,18.3-0.6,27.4c-0.3,10.9-1.3,21.7-1.1,32.6c0.2,16.4,7.3,21.5,20.3,26
		c7,2.4,13.9,0.8,15.8-3.1c2.4-4.9-0.5-12.4-6.8-16.9c-2.3-1.6-4.9-3-7.6-3.9c-5-1.8-10.1-3.2-16.2-5.2c-0.4-3.3-0.6-6.6-0.6-9.9
		c0.2-5,1.1-9.9,1.2-15c0.5-25.1,0.6-50.2,1.4-75.3c0.4-10.4-0.3-21.2,3.8-31.1c1.2,0.1,2.4,0.3,3.6,0.7c10.1,5.3,21.8,6.9,32.9,4.5
		c3.5-0.8,7,0.7,8.9,3.7c2.2,3,4.7,5.9,7.3,8.6h0c8.2,7.4,16.5,14.6,25,21.5c2.5,1.6,4.5,3.9,5.7,6.5s1.7,5.6,1.3,8.6v0
		c-1.8,18.2-2.8,36.5-3.9,54.8c-0.4,8-0.2,16-0.2,24c-1.9,0-3.8,0.2-5.7,0.5c-2.6,0.7-4.8,2.5-5.9,4.9c-1.1,2.4-1.1,5.2,0,7.7
		c6.3,8,16.3,12.1,26.5,11c5.8-1.3,7.1-4.6,3.3-9.7c-1.9-2.5-4.6-4.4-6.7-6.7c-1.6-1.4-2.9-3.3-3.6-5.3c-1.6-7.7-2.4-15.5-2.4-23.4
		c1.1-21.7,2.9-43.2,4.7-64.8c0.7-3.4-0.8-6.9-3.9-8.6v0c-4.4-2.8-8.4-6.2-12.5-9.4c-10.3-7.5-19.2-16.9-26.1-27.7
		c5.9-2.8,10.8-7.4,14-13c3.3-5.6,4.8-12.1,4.4-18.6v0c0-2.1,0-4.3-0.1-6.4c4.8-0.5,9.5-1,14.2-1.6c0.5-0.1,1-0.1,1.5-0.2
		c5.8-0.7,14.4-1.8,17.5-7c1.5-0.2,3-0.8,4.4-2c6.5-5.4,8.6-16,9.8-25.6c0.8-6.6,0.9-12.4,0.3-17.7c-0.5-4.1-1.4-8.7-4.8-11.6
		c-0.6-0.5-1.5-0.5-2.1,0c-0.6,0.5-0.7,1.4-0.2,2.1c5.1,7.2,3.9,35-3.7,46.9c-1.1,1.7-3.4,4.5-6.1,3.4c-4.4-1.8-8.9-13.7-4.8-33.8
		c2.3-11.2,6.1-17.9,11.6-20.2c0.3,0.2,0.7,0.2,1.1,0.1c0.6-0.1,1-0.5,1.3-1c0.3-0.3,0.4-0.6,0.4-1c0-0.3-0.1-0.6-0.4-0.8
		c-1.4-6.9-13.3-9.6-24.8-12.2c-1.7-0.4-3.3-0.7-4.9-1.1c-1.8-0.4-3.6-0.9-5.4-1.3c-4.9-1.2-10.2-2.5-16.3-3.6c-1.9-8.4-4-17-6.2-26
		c-0.2-2.3-0.6-4.5-1-6.5c0.6-0.7,1.4-1.6,2.1-2.6c9-12.2,11.9-18.5,28.3-10.6c10,5.4,18.6,13.2,24.8,22.8c1.9,2.3,3.7,4.8,5.3,7.3
		c1.5,2.3,2.4,4.9,2.5,7.6c-0.1,9.6,1.4,19.2,4.5,28.3c0.7,2.6,1.3,5.8,5.1,5.3c3.3-0.6,5.7-3.4,5.6-6.8
		C219,183.1,215.8,170.2,204.7,160.2z M8.4,237.5c-4.8-6.6-3.7-13.1,0.5-21.1C12,226.2,11.8,230.8,8.4,237.5z M87.5,442.8
		c8.8,2.2,17.9,3.1,21.9,14.3C97.5,460.3,86.9,453.4,87.5,442.8z M183.3,454.9L183.3,454.9c-3.7,0.2-7.5-0.7-10.7-2.6
		c-3.3-1.9-5.9-4.6-7.6-7.9c3.8-0.3,7.5,0.5,10.8,2.4C179.1,448.7,181.7,451.5,183.3,454.9z M81.6,59.7c-1-1.7-1.7-3.6-1.9-5.5
		c-0.4-7.8,1.3-15.6,4.9-22.5c3.7-6.9,9.1-12.7,15.8-16.7c17.2-10.4,35.3-7.6,52.8,5c5.8,4.3,10.9,9.5,15,15.4
		c7.4,10.2,4.6,20.2-0.8,29c-7.2,11.7-18.6,20.3-31.9,23.8c-1.1,0.3-2.1,0.6-3.2,0.7c-1.1,0.1-2.2,0.1-3.4,0l0,0
		C109.4,85.7,91.4,79.7,81.6,59.7z M42.1,197.4c2.8-5.9,7.4-8.9,15.6-10.3c3.2-0.5,6.3-1.1,9.4-1.7c1.7-0.3,3.4-0.7,5.1-1
		c0.4,0.3,1.1,0.7,2.4,1.3c2,1.1,5.1,2.7,8.2,4.8c-7.8,0.7-14.6,3.6-20.9,6.5c-2.4-1.4-4.3-2.9-5.8-4.5c-0.5-0.5-1.3-0.6-1.8-0.2
		c-0.6,0.4-0.9,1.2-0.6,1.9c0.8,1.8,2,3.4,3.8,4.9c-6.5,3-12.5,5.8-18.3,8.8c-0.3,0.2-0.6,0.4-0.7,0.7
		C39.3,204.5,40.5,200.7,42.1,197.4z M38.3,209.5c0,0.1,0,0.2,0.1,0.3c0.2,0.7,0.9,1.2,1.7,1.1c6.5-0.9,12.4-4,18.2-7
		c1.2-0.6,2.4-1.3,3.6-1.9c1.9,1,3.9,2,5.9,3c3.1,1.5,6.2,2.9,8.9,4.8c-5.8,1.5-11.2,3.8-16.2,6c-3.4-1.7-7.8-3.6-12.6-3l-0.9,0.1
		l-0.1,0.8c-0.1,0.8,0.6,1.1,1.5,1.4c1.1,0.4,3.5,1.3,6.9,3c-5.2,2.2-10.4,4.2-15.5,6.1l-2.4,0.9C37.2,219.5,37.5,214.2,38.3,209.5z
		 M37.7,228.8c6.7-0.6,13.3-3.7,19.7-6.7c1-0.4,1.9-0.9,2.9-1.3c3,1.8,6.1,3.9,9,5.8c2.5,1.7,5,3.4,7.6,5
		c-5.1,2.3-10.8,3.9-16.4,5.5c-2.6,0.7-5.2,1.5-7.8,2.3c-4.1-2.5-8.1-5.3-11.7-8.2c-0.6-0.5-1.5-0.5-2.1,0.1
		c-0.6,0.7-0.7,1.7-0.1,2.3c2.2,2.6,5.1,5,9,7.6c-2.7,1.1-4.9,2.3-6.7,3.8C39.3,240.1,38.2,234.7,37.7,228.8z M50.7,261.5
		c-3.4-3.7-6.2-8-8.3-13l1.5-0.6c3-1.2,6.1-2.4,9.2-3.5c5.6,3.2,12.1,6.6,18.7,8.7c-12.1,7.5-17.4,8-20.3,8.3
		C51.2,261.5,50.9,261.5,50.7,261.5z M151.4,275c0.4,15.8-9.2,24-25.8,27.8c-8.1,1.6-16.4,0.9-24.1-2.1c-10.3-3.7-13.8-8.3-14-19
		c0-1.1,0.1-2.2,0.2-3.3l-1.1-0.2l0,0c0.3-2.6,0.6-5.2,1-7.8c4.3,0.3,8.8,0.5,13.5,0.5c3.5,0,7.1-0.1,10.9-0.3
		c12.8-0.6,26.1-1.3,39.4-2.5C151.4,270.4,151.4,272.7,151.4,275z M172.9,190.3c9.7,2.2,16.5,3.8,20,7.2c-2.4,0.7-4.7,2.4-6.6,5.1
		c-13-4.4-30.5-7.4-42.2-9.4c-3.3-0.6-6.2-1-8.1-1.4c-2.4-0.5-4.9-1-7.3-1.5c-4.7-1-9.6-2-14.4-2.8c-0.9-0.2-1.7,0.4-1.8,1.4
		c-0.2,0.9,0.4,1.7,1.2,1.9c3.6,0.8,7.3,1.6,10.9,2.5c3.1,0.7,6.3,1.5,9.5,2.2c3.3,0.7,6.6,1.3,9.8,1.8c2.4,0.4,4.9,0.9,7.3,1.3
		c5.4,1.1,10.8,2.3,16,3.6c5.5,1.3,11.3,2.6,17,3.7c-1.1,2.1-2.1,4.5-3,7.2c-4-1-8.2-1.7-12.3-2.4c-2.5-0.4-5.1-0.9-7.6-1.4
		c-1.7-0.3-3.4-0.7-5.1-1.1c-5.1-1.1-10.4-2.2-15.6-3c-6.6-1.1-13.4-1.2-19.9-1.3c-6.9-0.1-14.1-0.2-21-1.5
		c-0.8-0.1-1.6,0.3-1.8,1.1c-0.2,0.8,0.2,1.6,0.9,2c7.6,3.1,16.2,3.1,24.4,3.1c4.7,0,9.6,0,14.2,0.6c5.6,0.8,12,2.2,18.1,3.5
		c8.7,1.9,17.7,3.9,24.6,4c-1.2,4.5-2,9.3-2.3,13.8c-18.7-3.8-33.1-3.7-44.8-3.7c-12,0.1-21.5,0.1-30-4.1c-0.7-0.4-1.6-0.1-2,0.6
		c-0.4,0.7-0.2,1.6,0.6,2.1c8.5,5.1,16.5,5.3,28.5,5.5c7,0.1,15.8,0.3,26.9,1.5c5.2,0.7,16.6,2,20.7,2.1c0,9.2,2.2,19.4,8.3,23
		c-3.8,2.2-9.4,2.9-13.5,3.4c-0.5,0.1-1.1,0.1-1.6,0.2c-5.6,0.7-11.3,1.2-16.8,1.7c-2.6,0.2-5.2,0.4-7.8,0.7
		c-44.3,4.1-55.8,2.7-70.2,1c-4-0.5-8.2-1-13.3-1.4c4.3-2,10-5,15.8-9.1c0.6-0.4,1-1.3,0.8-2.1c-0.2-0.9-0.8-1.5-1.6-1.6
		c-6.8-1.3-14-4.7-19.3-7.5c1.7-0.5,3.4-1,5.2-1.6c6.3-1.9,12.9-3.8,19.3-7.3c0.7-0.4,1.1-1,1.1-1.8c0-0.9-0.5-1.8-1.3-2.2
		c-3.3-1.9-6.4-4-9.6-6.1c-2.5-1.7-5-3.4-7.8-5.1c5.2-2.2,10.8-4.3,16.8-5.4c0.9-0.2,1.6-0.8,1.9-1.6c0.3-0.8,0-1.7-0.6-2.4
		c-3.9-3.9-8.9-6.2-13.8-8.4c-0.9-0.4-1.8-0.8-2.7-1.2c8.5-3.7,15.4-5.2,22.3-4.8c0.9,0.1,1.7-0.5,2.1-1.4c0.4-0.9,0.1-1.9-0.5-2.4
		c-3.4-2.9-7.4-5.9-11.9-7.7c26.7-4,56-2.6,81.1,3.9C164.8,188.4,169.1,189.4,172.9,190.3z M139.2,178.2c-7-1-15.1-1.7-24.9-1.8
		c-5.4-0.1-10.2,0-14.7,0.2c0.4-2.8,0.8-5.7,1.2-8.5c2.6-23.8,7.3-47.4,14-70.4c0.7-1.4,1.6-2.6,2.7-3.6c1.6,0.8,3,2,4.1,3.5
		c2.4,5.4,4.1,11.2,4.7,17.2c0.1,9.7,3.8,18.7,5.4,28.1C133.9,154.6,136.6,166.4,139.2,178.2z M212,193.7l-2,0.7
		c-1.2-5.8-2.5-11.7-3.7-17.5C212.7,181.1,211.6,187.6,212,193.7L212,193.7z"/>
	<path class="st0" d="M91.1,249.9c-0.8,0-1.4,0.6-1.5,1.4c0,0.8,0.6,1.5,1.4,1.5c7.3,0.3,14.6,0,21.7-0.3c7.4-0.3,15-0.7,22.5-0.3
		c1.9,0.1,3.8,0.2,5.7,0.3c4.6,0.3,9.4,0.6,14.1,0.7c1,0,2.1,0,3.1,0c5.9,0,11.6-0.4,16.9-2.3c0.8-0.3,1.3-1.1,1.2-2
		c-0.2-0.8-0.9-1.4-1.7-1.4c0,0,0,0,0,0h0c-3.2,0-6.4,0.3-9.6,0.5c-3.6,0.3-7.4,0.5-11.1,0.5c-3.7,0-7.5-0.2-11.2-0.4
		c-3.6-0.2-7.3-0.4-10.9-0.4c-7-0.1-14,0.5-20.8,1.1c-6.3,0.6-12.8,1.1-19.2,1.1C91.5,249.9,91.3,249.9,91.1,249.9z"/>
	<path class="st0" d="M193.9,230.2c0,0.8,0.5,1.5,1.2,1.7c0.8,0.2,1.6-0.1,2-0.8l0,0c1.5-2.8,1.5-6.8-0.2-9.7
		c-0.7-1.2-2.1-2.7-3.9-3.1c-1.1-0.3-2.1-0.1-3,0.5c-2.2,1.5-2.7,4.9-3.1,7.4l-0.1,0.6c-0.6,3.4-0.9,7.8,1.2,11.2
		c0.2,0.4,0.7,0.6,1.1,0.6c0.2,0,0.4,0,0.6-0.2c0.6-0.3,0.9-1,0.6-1.7c-1.5-3.5-0.4-8.2,0.7-11.9c0.1-0.2,0.1-0.4,0.2-0.6
		c0.1-0.6,0.4-1.6,0.8-1.8c0.1-0.1,0.3,0,0.6,0.1c0,0,0.3,0.2,0.8,1.3c0.7,1.7,0.6,3.7,0.5,5.7L193.9,230.2z"/>
</g>
</svg>
