<?xml version="1.0" encoding="utf-8"?>
<!-- Generator: Adobe Illustrator 25.2.3, SVG Export Plug-In . SVG Version: 6.00 Build 0)  -->
<svg version="1.1" id="Layer_1" xmlns="http://www.w3.org/2000/svg" xmlns:xlink="http://www.w3.org/1999/xlink" x="0px" y="0px"
	 viewBox="0 0 136.8 461" style="enable-background:new 0 0 136.8 461;" xml:space="preserve">
<style type="text/css">
	.st0{fill:#333333;}
</style>
<g>
	<path class="st0" d="M67.2,97.7c2.5,3.4,5.6,6.3,9.2,8.4c5.8,3.7,11.3,7.9,16.4,12.6c6,5.2,11.6,10.7,17.4,16.1
		c3.1,2.9,6.4,5.5,9.2,8.6c1.5,1.5,2.3,3.6,2.3,5.8c-2.6,11.3-5.3,22.5-8.5,33.6l0,0c-2.1,7.2-4.6,14.2-7.7,21
		c-1.9,4.3-1.8,9.2,0.3,13.4c1,2.5,2.1,5,3.3,7.5c4.2,9.2,1.2,16.2-8.6,19.3c1.9,9.7-0.6,19-1.9,28.5c-1.5,8.8-5.6,17-11.9,23.4
		c-2.5,2.6-3.7,6.3-3.2,9.9c1.8,23.2,3.4,46.3,5.4,69.5c1.2,14.1,2.9,28.2,4.6,42.3c0.9,7.7,2.5,15.4,3.7,23.1
		c6.9-0.2,13.6-0.5,20.4-0.5c6-0.2,11.8,2,16.1,6.2c2.3,1.6,3.5,4.3,3.2,7.1c-0.7,3.4-3.6,3.4-6.2,4c-3.3,0.5-6.7,1.2-9.9,2
		c-8.2,2.7-16,0-23.6-2.8c-2.3-1.4-4.3-3.2-6-5.3c-2.6-2.5-0.9-4.9-0.2-7.4c0.2-1.4,0.2-2.9-0.1-4.3c-0.9-10.5-1.6-21-2.7-31.4
		c-1.9-18.7-4.2-37.4-6-56.2c-0.7-7.1-0.7-14.2-1.2-21.2c-0.7-9.2-1.5-18.4-2.3-27.8l-20.4-1.4c-0.9,5-2,10.4-2.7,15.8
		c-1.7,12.2-3.3,24.5-4.6,36.8c-0.8,7-0.9,14-1.5,21c-1.5,17.6-3.1,35.3-4.8,52.9c-0.5,5.8-1.7,11.2,3.6,16.2
		c2.9,2.7,1,8.7-2.9,11.3l0,0c-2,1.3-4.2,2.3-6.5,3c-8.4,2.5-17.3,3.1-26,2c-3.4-0.5-6.6-2-9.3-4.1c-2-1.2-3.3-3.4-3.3-5.8
		s1.2-4.6,3.2-5.9c5.4-4.5,12.4-6.9,19.4-6.5c4.9,0.1,9.7,0,14.9,0c0.7-4.9,1.5-9.4,2-14c0.8-7,1.7-14,2.3-21
		c1.2-15.7,2-31.5,3.3-47.3c0.7-8.2,2.5-16.3,3.2-24.5c0.8-10.3,4.1-20.4,1.4-31l0,0c-0.2-0.7-0.1-1.4,0.3-1.9
		c-3.1-3.6-5.5-6.4-7.9-9.2c-4.5-5-7-11.5-7.2-18.2c-0.4-10.2-0.7-20.5-1.1-30.5c-2.3-0.9-4.4-2.2-6.2-3.9c-1-2.2-1.3-4.6-0.9-7
		c0.3-3.9,1-7.7,2.1-11.4c1.8-5.6,1.2-11.8-1.7-16.9c-6.2-12.3-11.8-24.9-17.9-37.2c-1.6-3-2.3-6.4-2-9.8c0.4-3.4,1.8-6.6,4-9.2
		c6.4-8.9,14.1-16.9,22.7-23.7c8.3-6.3,15.7-13.9,23.4-21.1l0,0c0.6-1.1,1-2.3,1.1-3.6c-2.9-1.2-5.8-2.4-8.7-3.4
		c-13.8-4.4-25.4-14-32.2-26.8C10.9,53.7,9.6,38.3,14,24.2C16.6,15,23.6,7.7,32.7,4.7C44,0,56.4-1.2,68.4,1.3
		c21.1,4.9,39.2,14.2,51.4,33.2c4.5,6.6,5.6,14.9,2.9,22.4c-3.7,11-10.1,20.9-18.6,28.7c-5.2,4-11.2,6.7-17.5,8.1
		C80.4,95.5,74,96.3,67.2,97.7L67.2,97.7z M63,105.5l-1.8,0.2l0,0c-0.4,0.8-0.7,1.7-0.9,2.6c-3.4,15.8-6.9,31.6-10,47.4
		c-2.2,11.4-4.1,22.8-5.7,34.3c-1.9,13.7-3.3,27.4-5,41.1l0,0c-2.1,14.7-1.6,29.8,1.6,44.3c0.8,3.3,2.2,6.4,4.2,9.2
		c4.6,5.6,10.9,9.4,17.9,10.8c3.9,1.4,8.1,1.5,12.1,0.2c3.9-1.3,7.3-3.8,9.7-7.2c7.4-9.9,11.1-22,10.7-34.4
		c0.1-5.6-0.5-11.2-0.5-16.8c-0.4-11.7-1.7-23.4-4.1-34.9c-1.7-10.1-3.8-20.1-5.7-30.2l0,0c-0.3-0.9-0.7-1.9-1.1-2.7
		c-6.4-14.9-11.5-30.3-15.2-46C67.4,117.4,65.4,111.4,63,105.5L63,105.5z M56,4.2c-6,0.9-12,2.1-17.9,3.6
		c-7.2,1.7-13.2,6.4-16.6,12.9c-5.8,11.6-6.8,25.1-2.6,37.4C24.8,75,44.4,89.6,61.4,89.2c1,0,1.9,0,2.9,0.3
		c12.4,3.1,25.5,0.1,35.4-8c8.1-6.4,14.2-15.1,17.4-24.9c3.7-9.5,0.9-17.1-4.7-24.5c-4.4-6-9.9-11.1-16.3-14.9C84,9.5,70.2,5,56,4.2
		L56,4.2z M36.6,206.5l1.5-0.2c0.4-1.9,0.8-3.7,1-5.6c1-9.1,1.2-18.4,2.9-27.4c3.3-17.7,7.4-35.3,11.1-52.9c0.6-2.7,0.7-5.5,1-8.3
		l-1.4-0.8c-2.4,1.8-4.8,3.6-7.1,5.5c-4.4,3.7-8.9,7.2-13,11.2c-5.6,5.5-10.8,11.4-16.1,17.2l0,0c-2.3,2.6-3.7,5.8-4,9.2
		s0.4,6.8,2.1,9.8c4,9,8,18,12.4,26.7C29.8,196.3,33.4,201.4,36.6,206.5L36.6,206.5z M97,205.4L97,205.4c3.1-5.6,5.9-11.4,8.3-17.4
		c3.8-11.4,6.9-23,10.3-34.5l0,0c0.8-3.2-0.4-6.5-3.1-8.5c-10.4-9.9-20.6-20-31.1-29.7c-3.2-2.5-6.5-4.7-10.1-6.5
		c0.1,4.4,0.9,8.7,2.3,12.8c3,10.4,5.3,21,9.2,31l0,0c6.4,15.2,10.7,31.2,12.9,47.5C95.8,201.3,96.2,202.4,97,205.4L97,205.4z
		 M42.3,448.5c-2.5-2.1-5.3-3.8-8.4-4.9c-7.4-1.6-15.1-1.1-22.3,1.5c-1.3,0.2-2.5,0.9-3.3,1.9c-0.8,1.1-1.1,2.4-0.9,3.8
		c0.7,2.5,3.1,4.1,5.7,3.8c8.7,0.7,17.5-0.4,25.8-3.2C40.1,450.6,41.3,449.7,42.3,448.5L42.3,448.5z M98.1,450
		c11.1,6.2,20.7,3.8,31.1,0.4C119.6,444.8,107.8,444.7,98.1,450z M36.3,217c-5.1,5.5-5.1,5.9-2.3,12.2L36.3,217z M102.1,225.8
		L102.1,225.8c-0.7,2.4,0.2,5,2.4,6.4C105,229.8,104,227.3,102.1,225.8L102.1,225.8z"/>
	<path class="st0" d="M86.2,69.1c-1.2,3.6-4.7,5.8-8.4,5.4c-7-1.1-13.4-4.3-18.3-9.4c-2.4,1.7-4.9,3.5-7.4,5.1l0,0
		c-4.6,2.9-10.3,3.4-15.3,1.4c-1.4-0.3-2.6-1.3-3.2-2.6c-0.6-1.3-0.5-2.9,0.2-4.1c7.8,3.6,11.3-0.8,14.2-6.5c1-1.6,2.1-3.2,3.3-4.7
		c1.4-2.4,4.5-3.2,7-1.9c2.3,0.8,4.7,1.1,7.1,1.1c3-0.3,6,1.2,7.5,3.9C75,62.6,80,67.3,86.2,69.1L86.2,69.1z M67.4,65.2l1.7-0.5
		l-1.6-4.2L66,60.9L67.4,65.2z"/>
	<path class="st0" d="M66.3,24.2c3.8-1.9,7-1.9,8,0.9C75.1,28,75,31.2,74,34c-0.4,0.9-1.3,1.5-2.3,1.5c-1-0.1-1.9-0.7-2.2-1.7
		C68.3,30.7,67.2,27.5,66.3,24.2L66.3,24.2z"/>
	<path class="st0" d="M54.1,35.2c-5.3-3.2-7-7.2-4.9-11.2l0,0c0.8-1.1,2-1.7,3.3-1.6c1.2,0.7,2.1,1.8,2.5,3.1
		c0.2,0.9,0.1,1.9-0.2,2.8C54.6,30.5,54.4,32.7,54.1,35.2L54.1,35.2z"/>
</g>
</svg>
