<?xml version="1.0" encoding="utf-8"?>
<!-- Generator: Adobe Illustrator 25.2.3, SVG Export Plug-In . SVG Version: 6.00 Build 0)  -->
<svg version="1.1" id="Layer_1" xmlns="http://www.w3.org/2000/svg" xmlns:xlink="http://www.w3.org/1999/xlink" x="0px" y="0px"
	 viewBox="0 0 410.4 452.5" style="enable-background:new 0 0 410.4 452.5;" xml:space="preserve">
<style type="text/css">
	.st0{fill:#333333;}
</style>
<g>
	<path class="st0" d="M279,91.3c-16.1-7.4-25.8-20.4-34.1-34.3c-2.8-5-3.9-10.9-3-16.6c1.2-8.8,1.9-17.5,7.3-24.8l0,0
		c1.7-3.3,5.1-5.5,8.9-5.4c2.6-0.2,5.1-1.2,7.2-2.8c14-9.9,29.8-8.5,45.7-3.1c9,3,17.4,7.5,24.8,13.4c6.6,5.1,11.1,12.4,12.7,20.6
		s0.1,16.7-4.2,23.8c-5.8,10.2-13.5,19.2-22.7,26.6c-6.8,5-14.9,4.7-22.6,6.2c-0.8,0.2-1.5,0.3-2.4,0.5c1.7,10.6,5,20.9,9.7,30.5
		c4,8.1,11.1,14.3,19.7,17.1c3,1.3,6.2,2.4,9.1,3.9c12.5,6.4,23.5,3.9,31.1-6.7l0,0c10.3-15,17.2-32.2,20.2-50.1
		c1.3-6.5,4.6-12.3,4.8-19.2c0.4-6.7,1.2-13.3,2.3-19.9c-0.3-3.3,2.1-6.3,5.4-6.9c3.7-0.4,7.2,1.5,9,4.7c2.4,3.7,3.2,8.3,2.1,12.6
		c-1.1,5.2-2.4,10.3-4,15.4c-1,2.4-1.8,5-2.4,7.5c-0.2,5.2-3.8,9.6-8.8,10.8c-2,1-3.5,2.8-4.2,4.9c-4.2,10.2-7.7,20.7-12.3,30.7
		c-2.9,6.4-6.6,12.4-11.2,17.7c-3.5,4.2-8.3,7-13.6,8.1s-10.8,0.3-15.6-2.2c-9.4-3.9-18.6-8.2-27.9-12.3
		c3.4,14.4,7.5,29.2,10.1,44.1l0,0c2.5,14.5,4.2,29.1,5.1,43.7c0.1,10.2-0.3,20.4-1.5,30.5c-0.9,12.9-4.7,24.1-17.1,29.6
		c0.2,11.2,0.6,22,0.6,32.7c-0.1,22.1-0.7,44.2-0.8,66.3c-0.3,9,1.4,18,5.2,26.3c1.4,2.8,2,5.9,1.6,9c-0.3,3.1-1.5,6-3.5,8.4
		c-5.1,6.5-12.2,11-20.3,12.8c-3.5,0.9-7.2,0-9.9-2.5c-4-3.4-4.8-5.5-2.6-9.9c2.7-6.6,7.6-12.1,13.8-15.5c3.8-1.8,7.3-4.1,11.7-6.6
		c-0.3-7.6-1-15.7-1-23.7c0.2-19.4,0.8-38.8,1-58.2c0.1-9.2-0.2-18.4-0.8-27.6l0,0c-0.7-4-1.8-7.9-3.2-11.7
		c-6.6,0-12.6-0.4-18.4,0.1c-6.2,0.6-10.2,5.3-14.3,9.1c-8.5,8-16.5,16.7-24.3,25.5l0,0c-1.5,2.4-2.2,5.3-1.9,8.1
		c0.4,20.5,1.1,41,1.7,61.6c0.2,7.3,0.2,14.6,0.7,21.9c-0.3,8.4,2.2,16.7,7.1,23.5c0.8,1.4,1.4,2.9,1.8,4.5
		c-6.2,2.9-12.8,4.9-19.7,5.8c-4.5,0.4-9.1,0.2-13.6-0.6c-4.6-0.4-8.3-4-8.9-8.6c-0.4-4.6,2.8-8.8,7.4-9.5
		c6.3-1.6,12.9-2.6,20.4-4.1c0-10.5,0.1-22,0-33.6c-0.2-14.9-0.3-29.7-0.9-44.6l0,0c-0.5-6.8-1.5-13.5-2.9-20.2
		c-0.9-2.5-0.1-5.3,2-7c6.5-5.6,12.7-11.6,18.8-17.7c6-6.1,11.6-12.5,17.4-18.9c-11.8-21.1-12.9-43.6-10.2-66.5
		c1.9-15.9,4.1-31.8,6.3-47.6c0.9-6.1,2.3-12,3.3-18c0.6-3.8,0.8-7.7,1.3-12.9c-7.8,4.1-14.2,7.5-20.7,10.9l0,0
		c-8.3,3.8-18,3.3-25.8-1.5c-5-3.1-8.5-8.2-9.4-14.1c-3-11.3-4-23-2.7-34.6c0.4-4.6-0.8-9.1-3.3-12.9c-5-9.5-8-19.9-9-30.6
		c0-2.9,0.6-5.8,1.9-8.4c2.3-6.4,8.3-7.1,12.9-1.5l0,0c3.3,3.8,5.2,8.6,5.3,13.6c0.2,8.1,0.4,16.2,0.4,24.3c-0.1,2.4-0.6,4.7-1.5,7
		c-4.3,10.7-3,32.9,2.3,44.4l0,0c1.2,3.1,3.3,5.7,6.1,7.6c2.8,1.8,6,2.8,9.3,2.7c10.4,0.6,17.6-5,25.6-9.3l0,0
		c1-0.8,2.1-1.6,3.3-2.1c6.4-1.6,8.1-6.7,9-12.4c1.4-9.5,2.7-19,4-28.5l0,0C279.3,93.7,279.2,92.5,279,91.3L279,91.3z M286.2,92.9
		c-1.5,4.3-2.8,8.7-3.9,13.2c-2,11.8-3.4,23.8-5.4,35.6c-4.7,27.1-7.8,54.4-11.6,81.7l0,0c-1.4,14.9,0.1,29.9,4.5,44.2
		c0.9,4.8,3.5,9.2,7.5,12.1c3.9,2.9,8.8,4.3,13.7,3.7c4-0.1,8.1-0.5,12.1-0.9c5.4-0.2,10-4.2,11-9.6c4.9-17.3,6.6-35.4,4.9-53.3
		c-0.5-10.6-1.8-21.1-4-31.5c-2.8-11.1-4.1-22.6-7.4-33.6C301.9,133.4,294.8,112.9,286.2,92.9L286.2,92.9z M291.6,5
		c-7.8-1-15.6,1.1-22,5.7c-4.4,3.1-9.6,5.1-14.2,7.9l0,0c-1.3,0.8-2.3,2.1-2.8,3.6c-3.7,10.2-7,20.7-2,31.9
		c2.1,4.5,4.8,8.7,8.1,12.5c6.2,7.1,12.1,15.2,21.6,17.8c8.4,2.1,17,3.6,25.7,4.4c2.9,0.2,5.8-0.6,8.3-2.1
		c11.9-7.3,21.2-18.2,26.6-31c2.2-4.6,3-9.8,2.3-14.8c-0.7-5.1-2.8-9.8-6.2-13.7C325.8,13.4,309.2,5.4,291.6,5L291.6,5z
		 M305.9,419.3c-9.3-0.6-21.1,7.1-23.5,14.8c-0.7,1.4-0.5,3.1,0.6,4.2s2.8,1.5,4.2,0.9c4.6-1.8,9.1-4,13.4-6.5
		C305.3,430,307.5,424.4,305.9,419.3L305.9,419.3z M208.2,49.3c-3.8,11.6-1.4,24.3,6.3,33.7C219.4,69,217,55.2,208.2,49.3z
		 M241,440.7L241,440.7c-2.2-3.5-5.7-6.1-9.7-7.1s-8.3-0.5-11.9,1.6c-1.9,1.1-3.3,3-3.5,5.2c0.2,1.4,0.9,2.6,2.1,3.4
		c1.1,0.8,2.6,1.1,3.9,0.8C228.4,444.7,235,443.4,241,440.7L241,440.7z M402.6,51.6l-3.4-0.8c-2.5,9.9-5.1,19.8-2.5,30.8
		C401,72.2,407,63.1,402.6,51.6L402.6,51.6z"/>
	<path class="st0" d="M98.4,153c-4.6,1.8-7.4,3.1-10.4,4c-10.3,2.8-21.2,1.9-30.9-2.4c-12.3-4.4-23.5-11.7-32.6-21.1
		c-4.7-5.1-8.3-11.2-10.4-17.7C9.7,102.4,5.3,89,1.9,75.4c-2.5-7.2-2.6-15.1-0.3-22.3c0.6-3.2,3.5-5.6,6.8-5.4c3.8,1,6.8,4,7.6,7.9
		c0.4,2.4,0.6,4.9,0.4,7.3c-0.7,7.7-2,15.4-2.4,23.1l0,0c-1.7,17.6,5.1,34.9,18.3,46.6c6.4,5.3,13.4,10,20.9,13.7
		c9.9,4.9,21.1,6.3,31.9,3.9c4.7-0.8,9.3-2.2,14.6-3.5c3.6-18.4,7.2-36.7,10.8-55c-2.3-1.7-4.7-3.1-7.2-4.4
		C92.2,82.4,83.2,73.8,77.7,63c-1.4-2.3-2.4-4.9-2.7-7.5C73.9,43.1,78,31,86.1,21.8s19.7-14.6,32-15.1c20.6-1,40.3,8.4,52.4,25.1
		c3.1,3.5,5.2,7.8,6,12.4c0.9,4.6,0.5,9.3-1.2,13.7c-3.7,12.2-12.1,22.4-23.3,28.5c-7.2,3.6-14.9,6.5-22.9,10c0,1.6,0.1,3.2,0.4,4.8
		c2.5,11.2,5.2,22.4,7.8,33.6c0.2,1.1,0.6,2.1,1.1,3.1c8.9,15.2,17.4,18.9,29.7,6.4l0,0c7.4-8.2,12.5-18.1,15.1-28.8
		c1-2.7,1.8-5.5,2.4-8.4c0.6-2.6,0.5-5.2-0.2-7.8c-3.2-8.7-5-17.9-5.2-27.2c-0.3-2.6-0.7-5.7,2.8-6.5c3.2-0.6,6.3,1.3,7.3,4.3
		c6.5,13,7.9,25.8,1,38.5c-2.5,5.2-4.6,10.6-6,16.2c-3.3,9.7-8.7,18.6-15.8,26c-8.3,9.2-15.4,9.6-26.4,2.7c-0.8-0.5-1.7-1-4.1-2.4
		c4,16,8.1,30.5,11.2,45.1c2.5,12,4.3,24.2,5.4,36.4c1,11.6,0.8,23.2,1,34.9c0.4,6.3-1.1,12.5-4.2,18c-3.2,5.4-7.9,9.8-13.6,12.5
		c6.7,10.4,15.2,19.5,25.2,26.8c4,3.1,7.9,6.3,12.1,9.1c2.9,1.6,4.4,5,3.7,8.3c-1.7,20.8-3.6,41.7-4.6,62.6l0,0
		c0.1,7.6,0.8,15.2,2.4,22.6c0.7,2,1.9,3.8,3.5,5.1c2,2.3,4.7,4.1,6.5,6.5c3.6,4.9,2.4,8.2-3.2,9.4l0,0c-9.8,1.1-19.4-3-25.6-10.6
		c-1.1-2.3-1.1-5.1,0-7.4s3.2-4.1,5.7-4.7c1.8-0.3,3.7-0.5,5.5-0.5c0-7.7-0.2-15.5,0.2-23.2c1-17.7,2-35.4,3.7-52.9
		c0.4-2.8-0.1-5.7-1.3-8.3c-1.2-2.6-3.1-4.8-5.5-6.3c-8.2-6.7-16.2-13.7-24.1-20.8c-2.5-2.6-4.9-5.4-7-8.3c-1.9-2.9-5.3-4.3-8.6-3.6
		c-10.8,2.3-22,0.8-31.8-4.3c-1.1-0.3-2.3-0.6-3.5-0.6c-3.9,9.6-3.3,20-3.6,30.1c-0.8,24.2-0.9,48.5-1.4,72.7
		c-0.1,4.8-1,9.6-1.1,14.4c0,3.2,0.2,6.4,0.6,9.6c5.9,1.8,10.8,3.2,15.7,5l0,0c2.6,0.9,5.1,2.2,7.3,3.8c6.1,4.4,8.8,11.6,6.5,16.4
		c-1.9,3.8-8.6,5.4-15.3,3c-12.6-4.4-19.4-9.3-19.6-25.1c-0.1-10.5,0.8-21,1.1-31.5c0.3-8.8,0.4-17.6,0.6-26.5c0.3-14,0.6-28,0.9-42
		c0.1-3.8,0.8-7.5,0.7-11.2c-0.2-12.1-1-24.3-0.9-36.4c0.1-10.8,0.6-21.5,1.7-32.2c1.6-15.4,3.8-30.7,5.9-46
		c1.8-12.9,4-25.8,5.9-38.8C97.7,159.3,97.9,156.7,98.4,153L98.4,153z M88.4,271.3l1.1,0.2c-0.1,1.1-0.2,2.1-0.2,3.2
		c0.2,10.3,3.6,14.8,13.5,18.4l0,0c7.4,2.9,15.5,3.6,23.3,2c16-3.6,25.3-11.5,24.9-26.8c-0.3-10.8,0.7-21.5,0-32.3l0,0
		c-0.8-10.3-2.3-20.6-4.3-30.7c-1.5-8-4.2-15.9-6-23.9c-3.1-13.6-6.2-27.2-8.6-40.9c-1.5-9-5.1-17.7-5.2-27.1
		c-0.7-5.7-2.2-11.3-4.6-16.6c-1.1-1.4-2.4-2.6-4-3.4c-1.1,1-2,2.2-2.6,3.5c-6.5,22.2-11,45-13.5,68c-2.6,18.5-4.9,37-7.3,55.5
		C92.6,237.4,90.5,254.3,88.4,271.3L88.4,271.3z M129.2,88.6c1.1,0,2.2,0,3.2,0c1.1-0.1,2.1-0.4,3.1-0.7c12.8-3.4,23.9-11.7,30.8-23
		c5.2-8.5,7.9-18.1,0.8-28c-4-5.7-8.9-10.8-14.5-14.9c-16.9-12.2-34.4-14.9-51-4.8c-6.5,3.9-11.7,9.5-15.3,16.1
		C82.8,40,81.1,47.5,81.5,55c0.2,1.9,0.9,3.7,1.9,5.3C92.9,79.7,110.3,85.5,129.2,88.6L129.2,88.6z M110.3,444.2
		c-3.9-10.9-12.7-11.7-21.2-13.9C88.6,440.5,98.8,447.3,110.3,444.2z M181.7,442c-1.6-3.3-4.1-6-7.3-7.8s-6.8-2.6-10.4-2.3
		c1.7,3.2,4.2,5.9,7.4,7.7C174.5,441.4,178.1,442.2,181.7,442L181.7,442z M8.6,75.2c3-9.5,2.8-13.9-0.5-20.4
		C3.5,61.2,4.6,67.4,8.6,75.2z M187.2,75.7h-2.1c0.8,5.7,1.6,11.4,2.3,17.2C192,86.9,188.8,81.3,187.2,75.7L187.2,75.7z"/>
	<path class="st0" d="M268.4,62.9c0.8-1.3,2.2-2.1,3.7-2.1c1.5-0.1,3,0.6,3.9,1.8c4,3.9,9.1,6.4,14.7,7c5.5,0.6,11.1-0.6,15.9-3.6
		c0.5-0.2,0.9-0.4,1.5-0.6c2-0.5,4.5-1.8,5.4,1.2l0,0c0,1.7-1,3.2-2.5,4c-6.1,2.4-12.4,4.1-18.9,5.1
		C282.3,76.6,274.5,71.7,268.4,62.9L268.4,62.9z"/>
	<path class="st0" d="M273.2,41.6c1.3-5.3,2.2-9.4,3.5-13.4c0.2-1.1,0.9-2,2-2.4c1-0.4,2.2-0.2,3.1,0.5c1.2,1.2,1.8,3,1.6,4.7
		c-0.6,3.6-2,7-2.7,10.5c-0.4,2.2-0.7,4.8-3.4,4.1C275.5,44.6,274.2,43.3,273.2,41.6L273.2,41.6z"/>
	<path class="st0" d="M299.7,51.2c-2.3-8.1-2.3-8.2,1.4-22.7c2.7-0.6,5.2,0.1,4.7,3.4c-0.8,6-2.3,11.9-3.7,17.8l0,0
		C301.5,50.4,300.6,50.9,299.7,51.2L299.7,51.2z"/>
	<path class="st0" d="M137.7,65.6l5.1,5.6c-3.1,1.7-6.3,3-9.7,4c-14.4,2-28.8,0.8-35.7-10.9c1.8-2.6,3.9-1.6,6.3-0.2l0,0
		c4.5,2.5,9.4,4.3,14.5,5.2C124.9,70.9,132,69.5,137.7,65.6L137.7,65.6z"/>
	<path class="st0" d="M109.1,51.9c-1.7-6.6-1.9-13.5-0.5-20.1c0.8-1.4,1.9-2.6,3.2-3.4c1.2,1.2,2.1,2.6,2.6,4.2
		c0.3,5.1,0.1,10.1,0.2,15.2C114.8,51.1,113.5,52.8,109.1,51.9L109.1,51.9z"/>
	<path class="st0" d="M132.5,31.9c-0.2,7.4-0.4,13.9-0.6,21.4c-1.3-0.6-2.5-1.4-3.5-2.5c-2-5.6-2.5-11.6-1.5-17.4
		C127.6,29.5,129.8,29.8,132.5,31.9L132.5,31.9z"/>
</g>
</svg>
